<svg xmlns="http://www.w3.org/2000/svg" viewBox="0 0 512 512">
  <defs>
    <linearGradient id="grad" x1="0%" y1="0%" x2="100%" y2="100%">
      <stop offset="0%" style="stop-color:#FFD700;stop-opacity:1" />
      <stop offset="100%" style="stop-color:#FF8C00;stop-opacity:1" />
    </linearGradient>
  </defs>
  <circle cx="256" cy="256" r="240" fill="#1a1a1a" />
  <path d="M360 160c-20-20-50-30-80-30s-60 10-80 30c-20 20-30 50-30 80 0 30 10 60 30 80 20 20 50 30 80 30s60-10 80-30" stroke="url(#grad)" stroke-width="40" stroke-linecap="round" stroke-linejoin="round" fill="none" transform="rotate(45 256 256)"/>
  <path d="M280 160c0-20-10-40-30-50" stroke="url(#grad)" stroke-width="40" stroke-linecap="round" fill="none"/>
  <path d="M230 350c0 20 10 40 30 50" stroke="url(#grad)" stroke-width="40" stroke-linecap="round" fill="none"/>
  <!-- Stylized S shape -->
  <path d="M300 130 C 200 130, 200 256, 300 256 C 400 256, 400 382, 300 382" stroke="url(#grad)" stroke-width="45" stroke-linecap="round" fill="none" transform="translate(-44, 0)"/>
</svg>
